<mxfile host="Electron" modified="2023-05-10T18:14:23.059Z" agent="Mozilla/5.0 (Windows NT 10.0; Win64; x64) AppleWebKit/537.36 (KHTML, like Gecko) draw.io/21.2.8 Chrome/112.0.5615.165 Electron/24.2.0 Safari/537.36" etag="kgtpXmFy9R2LqvTcicGM" version="21.2.8" type="device">
  <diagram name="StrÃ¡nka-1" id="ViN0PzSODXsCPoTMti36">
    <mxGraphModel dx="896" dy="523" grid="1" gridSize="10" guides="1" tooltips="1" connect="1" arrows="1" fold="1" page="1" pageScale="1" pageWidth="827" pageHeight="1169" math="0" shadow="0">
      <root>
        <mxCell id="0" />
        <mxCell id="1" parent="0" />
        <mxCell id="q2PkyobmxPt7xghLCBpM-1" value="0x00" style="rounded=0;whiteSpace=wrap;html=1;fillColor=#f5f5f5;fontColor=#333333;strokeColor=#000000;" vertex="1" parent="1">
          <mxGeometry x="40" y="280" width="70" height="40" as="geometry" />
        </mxCell>
        <mxCell id="q2PkyobmxPt7xghLCBpM-31" style="edgeStyle=orthogonalEdgeStyle;rounded=0;orthogonalLoop=1;jettySize=auto;html=1;exitX=0.5;exitY=1;exitDx=0;exitDy=0;endArrow=none;endFill=0;" edge="1" parent="1" source="q2PkyobmxPt7xghLCBpM-2">
          <mxGeometry relative="1" as="geometry">
            <mxPoint x="155" y="335" as="targetPoint" />
            <mxPoint x="155" y="325" as="sourcePoint" />
          </mxGeometry>
        </mxCell>
        <mxCell id="q2PkyobmxPt7xghLCBpM-2" value="cobs_length &lt;b&gt;N&lt;/b&gt;" style="rounded=0;whiteSpace=wrap;html=1;fillColor=#f5f5f5;fontColor=#333333;strokeColor=#000000;" vertex="1" parent="1">
          <mxGeometry x="120" y="280" width="70" height="40" as="geometry" />
        </mxCell>
        <mxCell id="q2PkyobmxPt7xghLCBpM-19" style="rounded=0;orthogonalLoop=1;jettySize=auto;html=1;exitX=0;exitY=0;exitDx=0;exitDy=0;entryX=0;entryY=1;entryDx=0;entryDy=0;endArrow=none;endFill=0;" edge="1" parent="1" source="q2PkyobmxPt7xghLCBpM-3" target="q2PkyobmxPt7xghLCBpM-8">
          <mxGeometry relative="1" as="geometry" />
        </mxCell>
        <mxCell id="q2PkyobmxPt7xghLCBpM-3" value="cobs_data&lt;br&gt;[&lt;b&gt;0&lt;/b&gt;]" style="rounded=0;whiteSpace=wrap;html=1;fillColor=#cce5fe;strokeColor=#000000;" vertex="1" parent="1">
          <mxGeometry x="200" y="280" width="70" height="40" as="geometry" />
        </mxCell>
        <mxCell id="q2PkyobmxPt7xghLCBpM-4" value="cobs_data&lt;br&gt;[&lt;b&gt;1&lt;/b&gt;]" style="rounded=0;whiteSpace=wrap;html=1;fillColor=#cce5fe;strokeColor=#000000;" vertex="1" parent="1">
          <mxGeometry x="280" y="280" width="70" height="40" as="geometry" />
        </mxCell>
        <mxCell id="q2PkyobmxPt7xghLCBpM-5" value="cobs_data&lt;br&gt;[&lt;b&gt;2&lt;/b&gt;]" style="rounded=0;whiteSpace=wrap;html=1;fillColor=#cce5fe;strokeColor=#000000;" vertex="1" parent="1">
          <mxGeometry x="360" y="280" width="70" height="40" as="geometry" />
        </mxCell>
        <mxCell id="q2PkyobmxPt7xghLCBpM-6" value="cobs_data&lt;br&gt;[&lt;b&gt;..&lt;/b&gt;]" style="rounded=0;whiteSpace=wrap;html=1;fillColor=#cce5fe;strokeColor=#000000;" vertex="1" parent="1">
          <mxGeometry x="440" y="280" width="70" height="40" as="geometry" />
        </mxCell>
        <mxCell id="q2PkyobmxPt7xghLCBpM-7" value="cobs_data&lt;br&gt;[&lt;b&gt;N&lt;/b&gt;]" style="rounded=0;whiteSpace=wrap;html=1;fillColor=#cce5fe;strokeColor=#000000;" vertex="1" parent="1">
          <mxGeometry x="600" y="280" width="70" height="40" as="geometry" />
        </mxCell>
        <mxCell id="q2PkyobmxPt7xghLCBpM-17" style="edgeStyle=orthogonalEdgeStyle;rounded=0;orthogonalLoop=1;jettySize=auto;html=1;exitX=0.5;exitY=1;exitDx=0;exitDy=0;entryX=0.5;entryY=0;entryDx=0;entryDy=0;" edge="1" parent="1" source="q2PkyobmxPt7xghLCBpM-8" target="q2PkyobmxPt7xghLCBpM-4">
          <mxGeometry relative="1" as="geometry" />
        </mxCell>
        <mxCell id="q2PkyobmxPt7xghLCBpM-8" value="channel_id" style="whiteSpace=wrap;html=1;" vertex="1" parent="1">
          <mxGeometry x="280" y="160" width="70" height="40" as="geometry" />
        </mxCell>
        <mxCell id="q2PkyobmxPt7xghLCBpM-9" value="data[&lt;b&gt;0&lt;/b&gt;]" style="whiteSpace=wrap;html=1;" vertex="1" parent="1">
          <mxGeometry x="360" y="160" width="70" height="40" as="geometry" />
        </mxCell>
        <mxCell id="q2PkyobmxPt7xghLCBpM-11" value="data[&lt;b&gt;..&lt;/b&gt;]" style="whiteSpace=wrap;html=1;" vertex="1" parent="1">
          <mxGeometry x="440" y="160" width="70" height="40" as="geometry" />
        </mxCell>
        <mxCell id="q2PkyobmxPt7xghLCBpM-13" value="cobs_data&lt;br&gt;[&lt;b&gt;..&lt;/b&gt;]" style="rounded=0;whiteSpace=wrap;html=1;fillColor=#cce5fe;strokeColor=#000000;" vertex="1" parent="1">
          <mxGeometry x="520" y="280" width="70" height="40" as="geometry" />
        </mxCell>
        <mxCell id="q2PkyobmxPt7xghLCBpM-18" style="edgeStyle=orthogonalEdgeStyle;rounded=0;orthogonalLoop=1;jettySize=auto;html=1;exitX=1;exitY=1;exitDx=0;exitDy=0;endArrow=none;endFill=0;" edge="1" parent="1" source="q2PkyobmxPt7xghLCBpM-14">
          <mxGeometry relative="1" as="geometry">
            <mxPoint x="670.2325581395348" y="280" as="targetPoint" />
          </mxGeometry>
        </mxCell>
        <mxCell id="q2PkyobmxPt7xghLCBpM-14" value="CRC16" style="whiteSpace=wrap;html=1;" vertex="1" parent="1">
          <mxGeometry x="520" y="160" width="150" height="40" as="geometry" />
        </mxCell>
        <mxCell id="q2PkyobmxPt7xghLCBpM-16" style="rounded=0;orthogonalLoop=1;jettySize=auto;html=1;exitX=0.5;exitY=0;exitDx=0;exitDy=0;entryX=0.5;entryY=1;entryDx=0;entryDy=0;endArrow=none;endFill=0;dashed=1;strokeColor=#B3B3B3;" edge="1" parent="1" source="q2PkyobmxPt7xghLCBpM-14" target="q2PkyobmxPt7xghLCBpM-14">
          <mxGeometry relative="1" as="geometry" />
        </mxCell>
        <mxCell id="q2PkyobmxPt7xghLCBpM-22" value="" style="shape=curlyBracket;whiteSpace=wrap;html=1;rounded=1;flipH=1;labelPosition=right;verticalLabelPosition=middle;align=left;verticalAlign=middle;direction=south;" vertex="1" parent="1">
          <mxGeometry x="360" y="125" width="150" height="30" as="geometry" />
        </mxCell>
        <mxCell id="q2PkyobmxPt7xghLCBpM-23" value="Packet data&lt;br style=&quot;font-size: 10px;&quot;&gt;max. 251" style="text;html=1;align=center;verticalAlign=middle;resizable=0;points=[];autosize=1;strokeColor=none;fillColor=none;fontSize=10;" vertex="1" parent="1">
          <mxGeometry x="395" y="92" width="80" height="40" as="geometry" />
        </mxCell>
        <mxCell id="q2PkyobmxPt7xghLCBpM-24" value="" style="shape=curlyBracket;whiteSpace=wrap;html=1;rounded=1;flipH=1;labelPosition=right;verticalLabelPosition=middle;align=left;verticalAlign=middle;direction=south;" vertex="1" parent="1">
          <mxGeometry x="280" y="70" width="230" height="30" as="geometry" />
        </mxCell>
        <mxCell id="q2PkyobmxPt7xghLCBpM-25" value="CRC context" style="text;html=1;align=center;verticalAlign=middle;resizable=0;points=[];autosize=1;strokeColor=none;fillColor=none;fontSize=10;" vertex="1" parent="1">
          <mxGeometry x="355" y="47" width="80" height="30" as="geometry" />
        </mxCell>
        <mxCell id="q2PkyobmxPt7xghLCBpM-27" value="Frame&lt;br style=&quot;font-size: 10px;&quot;&gt;max. 257" style="text;html=1;align=center;verticalAlign=middle;resizable=0;points=[];autosize=1;strokeColor=none;fillColor=none;fontSize=10;" vertex="1" parent="1">
          <mxGeometry x="45" y="230" width="60" height="40" as="geometry" />
        </mxCell>
        <mxCell id="q2PkyobmxPt7xghLCBpM-28" value="max. 255" style="text;html=1;align=center;verticalAlign=middle;resizable=0;points=[];autosize=1;strokeColor=none;fillColor=none;fontSize=10;" vertex="1" parent="1">
          <mxGeometry x="125" y="328" width="60" height="30" as="geometry" />
        </mxCell>
        <mxCell id="q2PkyobmxPt7xghLCBpM-32" style="edgeStyle=orthogonalEdgeStyle;rounded=0;orthogonalLoop=1;jettySize=auto;html=1;exitX=0.5;exitY=1;exitDx=0;exitDy=0;endArrow=none;endFill=0;" edge="1" parent="1">
          <mxGeometry relative="1" as="geometry">
            <mxPoint x="235" y="335" as="targetPoint" />
            <mxPoint x="235" y="320" as="sourcePoint" />
          </mxGeometry>
        </mxCell>
        <mxCell id="q2PkyobmxPt7xghLCBpM-33" value="COBS overhead&lt;br&gt;byte" style="text;html=1;align=center;verticalAlign=middle;resizable=0;points=[];autosize=1;strokeColor=none;fillColor=none;fontSize=10;" vertex="1" parent="1">
          <mxGeometry x="185" y="328" width="100" height="40" as="geometry" />
        </mxCell>
        <mxCell id="q2PkyobmxPt7xghLCBpM-34" style="edgeStyle=orthogonalEdgeStyle;rounded=0;orthogonalLoop=1;jettySize=auto;html=1;exitX=0.5;exitY=1;exitDx=0;exitDy=0;endArrow=none;endFill=0;" edge="1" parent="1">
          <mxGeometry relative="1" as="geometry">
            <mxPoint x="74.89" y="335" as="targetPoint" />
            <mxPoint x="74.89" y="320" as="sourcePoint" />
          </mxGeometry>
        </mxCell>
        <mxCell id="q2PkyobmxPt7xghLCBpM-35" value="Delimiter" style="text;html=1;align=center;verticalAlign=middle;resizable=0;points=[];autosize=1;strokeColor=none;fillColor=none;fontSize=10;" vertex="1" parent="1">
          <mxGeometry x="45" y="328" width="60" height="30" as="geometry" />
        </mxCell>
      </root>
    </mxGraphModel>
  </diagram>
</mxfile>
